<svg id="visual" viewBox="0 0 900 600" width="900" height="600" xmlns="http://www.w3.org/2000/svg" xmlns:xlink="http://www.w3.org/1999/xlink" version="1.1"><rect x="0" y="0" width="900" height="600" fill="#0e0d11"></rect><defs><linearGradient id="grad1_0" x1="33.3%" y1="0%" x2="100%" y2="100%"><stop offset="20%" stop-color="#0e0d11" stop-opacity="1"></stop><stop offset="80%" stop-color="#0e0d11" stop-opacity="1"></stop></linearGradient></defs><defs><linearGradient id="grad2_0" x1="0%" y1="0%" x2="66.7%" y2="100%"><stop offset="20%" stop-color="#0e0d11" stop-opacity="1"></stop><stop offset="80%" stop-color="#0e0d11" stop-opacity="1"></stop></linearGradient></defs><g transform="translate(900, 0)"><path d="M0 486.7C-43.8 458.2 -87.7 429.7 -135.7 417.5C-183.7 405.3 -235.9 409.3 -284.5 391.6C-333.1 373.8 -378.2 334.3 -393.8 286.1C-409.4 237.9 -395.5 181.1 -406.1 132C-416.7 82.8 -451.7 41.4 -486.7 0L0 0Z" fill="#a21c1c"></path></g><g transform="translate(0, 600)"><path d="M0 -486.7C49.8 -478.8 99.7 -470.9 148.6 -457.5C197.6 -444 245.7 -425.1 286.1 -393.8C326.5 -362.5 359.2 -318.8 375.4 -272.7C391.6 -226.6 391.2 -178.1 407.1 -132.3C422.9 -86.4 454.8 -43.2 486.7 0L0 0Z" fill="#a21c1c"></path></g></svg>